<svg xmlns="http://www.w3.org/2000/svg" xmlns:xlink="http://www.w3.org/1999/xlink" width="500" zoomAndPan="magnify" viewBox="0 0 375 374.999991" height="500" preserveAspectRatio="xMidYMid meet" version="1.0"><defs><clipPath id="49bb3e40f3"><path d="M 15 1 L 361.636719 1 L 361.636719 369 L 15 369 Z M 15 1 " clip-rule="nonzero"/></clipPath></defs><rect x="-37.5" width="450" fill="#ffffff" y="-37.499999" height="449.999989" fill-opacity="1"/><rect x="-37.5" width="450" fill="#680916" y="-37.499999" height="449.999989" fill-opacity="1"/><g clip-path="url(#49bb3e40f3)"><path fill="#ffffff" d="M 47.960938 133.015625 C 47.539062 126.285156 47.203125 120.0625 46.867188 113.835938 C 46.195312 101.886719 51.242188 91.875 59.488281 83.378906 C 75.554688 66.890625 94.65625 54.101562 116.613281 45.4375 C 152.621094 31.300781 190.144531 21.710938 228.257812 14.222656 C 247.859375 10.351562 267.378906 6.3125 287.066406 2.863281 C 302.628906 0.171875 317.941406 0.425781 331.90625 9.007812 C 347.386719 18.511719 356.136719 32.226562 358.996094 49.136719 C 360.34375 57.046875 360.679688 65.121094 361.015625 73.117188 C 361.355469 80.941406 355.464844 87.671875 347.21875 88.59375 C 337.878906 89.6875 328.457031 90.445312 319.035156 90.953125 C 312.136719 91.289062 305.238281 91.875 298.171875 91.121094 C 288.160156 90.027344 280.921875 85.652344 276.378906 77.488281 C 273.183594 71.683594 270.828125 65.375 267.796875 59.484375 C 263.421875 50.988281 255.515625 47.792969 246.007812 48.128906 C 241.210938 48.296875 236.417969 49.558594 231.707031 50.484375 C 218.246094 53.09375 205.625 57.972656 192.921875 62.851562 C 181.394531 67.308594 169.53125 70.929688 157.835938 75.050781 C 152.707031 76.902344 147.65625 78.921875 142.777344 81.191406 C 133.945312 85.316406 132.007812 91.792969 134.703125 100.710938 C 135.964844 104.832031 138.066406 108.703125 139.75 112.65625 C 146.480469 128.558594 143.535156 140.503906 131.25 150.855469 C 119.222656 161.035156 105.507812 168.351562 89.605469 171.214844 C 80.6875 172.8125 73.117188 170.121094 67.058594 163.050781 C 59.90625 154.722656 53.511719 146.140625 49.980469 136.046875 C 28.863281 136.214844 14.054688 162.464844 22.46875 184.675781 C 27.769531 178.53125 33.910156 173.988281 42.070312 172.054688 C 47.625 170.707031 52.421875 172.054688 56.792969 174.832031 C 63.105469 178.871094 63.527344 187.621094 58.058594 193.84375 C 51.410156 201.5 41.144531 203.605469 31.722656 199.0625 C 29.03125 197.800781 26.589844 196.03125 23.984375 194.433594 C 13.636719 206.886719 20.449219 237.425781 37.445312 250.296875 C 38.957031 248.363281 40.472656 246.34375 42.15625 244.578125 C 47.289062 238.941406 53.429688 234.984375 61.757812 235.152344 C 68.488281 235.324219 73.367188 238.6875 74.882812 243.988281 C 76.230469 248.867188 73.453125 255.175781 67.984375 257.785156 C 62.601562 260.394531 56.964844 262.75 50.570312 260.476562 C 47.539062 259.382812 44.175781 258.964844 41.0625 258.207031 C 32.566406 272.59375 40.558594 294.972656 57.046875 302.292969 C 58.980469 299.597656 60.832031 296.65625 63.105469 293.960938 C 67.058594 289.25 72.105469 286.390625 78.835938 286.644531 C 82.625 286.8125 85.0625 288.324219 86.746094 291.4375 C 88.511719 294.636719 88.09375 297.582031 85.90625 300.273438 C 79.679688 307.761719 71.433594 310.199219 61.339844 308.433594 C 57.300781 319.285156 60.074219 329.214844 66.804688 338.214844 C 72.023438 345.199219 79.425781 348.648438 88.597656 348.984375 C 100.878906 349.488281 112.070312 347.050781 122.417969 339.394531 C 115.601562 324.671875 116.191406 309.191406 117.203125 293.792969 C 118.128906 278.988281 120.652344 264.265625 122.082031 249.457031 C 123.425781 236.164062 127.382812 223.628906 133.691406 211.765625 C 138.402344 202.929688 145.21875 195.527344 152.789062 188.796875 C 157.332031 184.757812 159.015625 180.71875 158.511719 174.496094 C 157.667969 165.15625 158.929688 155.734375 159.351562 146.140625 C 165.832031 140.925781 173.148438 142.691406 180.046875 144.292969 C 183.917969 145.214844 186.359375 148.496094 187.367188 152.535156 C 188.628906 157.5 190.058594 162.378906 191.574219 167.765625 C 214.878906 168.101562 237.761719 165.660156 261.40625 163.976562 C 261.992188 158.339844 260.5625 151.777344 266.285156 148.160156 C 272.761719 144.039062 280.167969 142.609375 288.496094 144.121094 C 291.691406 155.734375 291.1875 167.765625 291.777344 179.796875 C 296.152344 182.320312 300.105469 185.09375 304.480469 186.945312 C 324.503906 195.613281 335.609375 210.082031 337.460938 230.863281 C 338.46875 242.808594 339.898438 254.757812 340.65625 266.789062 C 341.667969 283.699219 342.339844 300.609375 342.675781 317.519531 C 342.84375 326.691406 341.414062 335.777344 335.273438 343.601562 C 334.09375 345.03125 333.84375 347.21875 333.589844 349.152344 C 333.335938 351.089844 333.675781 353.191406 333.757812 355.210938 C 333.925781 363.792969 332.328125 365.558594 323.074219 366.820312 C 318.867188 367.410156 314.660156 368.082031 310.371094 368.25 C 301.703125 368.671875 300.863281 367.914062 297.917969 360.175781 C 297.496094 359.082031 296.824219 358.15625 295.898438 356.472656 C 253.917969 358.578125 211.765625 361.605469 169.617188 357.988281 C 168.4375 361.6875 167.511719 364.632812 166.503906 367.832031 C 159.101562 369.261719 151.695312 369.261719 144.628906 368 C 134.871094 366.148438 131.671875 363.625 129.988281 352.015625 C 129.484375 348.394531 129.148438 345.199219 125.445312 343.265625 C 116.109375 351.003906 104.414062 353.78125 92.550781 354.117188 C 74.800781 354.621094 61.925781 344.609375 56.792969 329.71875 C 54.355469 322.652344 53.34375 315.164062 56.207031 307.84375 C 37.191406 298.253906 28.863281 278.0625 35.59375 256.019531 C 30.546875 248.867188 25.078125 242.640625 21.292969 235.574219 C 14.222656 222.199219 13.972656 207.894531 18.515625 193.761719 C 19.691406 189.976562 19.777344 186.777344 18.683594 182.992188 C 14.140625 166.921875 17.671875 152.535156 29.957031 140.253906 C 34.667969 135.203125 40.894531 132.679688 47.960938 133.015625 Z M 72.863281 161.371094 C 72.613281 161.203125 72.445312 161.035156 72.191406 160.867188 C 72.445312 161.035156 72.695312 161.203125 72.949219 161.285156 C 77.742188 167.511719 84.558594 167.089844 91.035156 165.492188 C 105.339844 161.960938 118.128906 155.734375 128.644531 145.722656 C 136.382812 138.316406 140.675781 130.074219 136.046875 119.554688 C 133.859375 127.550781 129.90625 134.53125 123.765625 140.671875 C 110.050781 154.640625 92.886719 161.035156 72.863281 161.371094 Z M 278.148438 68.234375 C 278.0625 67.984375 278.0625 67.730469 277.894531 67.5625 C 277.808594 67.476562 277.558594 67.394531 277.390625 67.394531 C 277.640625 67.648438 277.980469 67.898438 278.230469 68.152344 C 280.503906 78.921875 288.914062 86.914062 303.890625 86.914062 C 310.285156 86.914062 316.761719 87.417969 323.074219 86.746094 C 331.148438 85.902344 339.226562 84.640625 347.136719 82.707031 C 354.035156 81.023438 355.210938 78.753906 355.378906 72.191406 C 355.464844 68.320312 355.378906 64.449219 355.378906 58.898438 C 348.816406 65.460938 343.519531 70.253906 335.945312 72.695312 C 324.925781 76.226562 313.820312 76.3125 302.714844 74.546875 C 294.300781 73.03125 286.308594 70.339844 278.148438 68.234375 Z M 332.917969 305.910156 L 333.507812 306.414062 C 324.925781 316.761719 312.558594 320.96875 299.683594 323.492188 C 289.671875 325.511719 279.074219 325.429688 269.0625 327.445312 C 249.542969 331.402344 229.6875 330.476562 210.082031 331.738281 C 193.679688 332.832031 177.523438 329.214844 161.371094 326.351562 C 148.75 324.082031 136.71875 320.210938 125.613281 314.15625 C 125.027344 313.816406 124.101562 313.984375 122.671875 313.816406 C 122.671875 316.171875 122.503906 318.109375 122.671875 320.128906 C 124.605469 337.878906 130.160156 346.039062 149.425781 350.246094 C 161.203125 352.769531 173.488281 353.863281 185.601562 354.03125 C 222.453125 354.539062 259.386719 355.125 296.066406 350.921875 C 302.628906 350.164062 309.359375 349.40625 315.753906 347.808594 C 331.066406 343.851562 336.449219 337.289062 336.449219 322.484375 C 336.367188 310.453125 335.441406 298.421875 335.105469 286.390625 C 334.769531 276.042969 335.1875 265.695312 334.515625 255.347656 C 333.757812 244.242188 332.582031 233.136719 330.644531 222.113281 C 329.214844 214.121094 325.09375 206.96875 318.277344 201.585938 C 312.136719 196.789062 305.828125 192.582031 297.832031 190.730469 C 291.441406 189.21875 287.234375 185.347656 286.898438 178.617188 C 286.476562 170.625 285.804688 162.632812 285.214844 154.640625 C 285.046875 152.453125 284.792969 150.265625 284.539062 147.992188 C 278.566406 147.742188 273.519531 149.171875 269.3125 151.949219 C 263.421875 155.816406 266.957031 162.546875 265.359375 167.933594 C 258.460938 168.691406 251.8125 169.445312 245.167969 170.035156 C 238.519531 170.625 231.875 171.296875 225.226562 171.550781 C 218.496094 171.886719 211.765625 172.390625 205.121094 171.71875 C 198.558594 171.046875 192.078125 174.914062 186.105469 172.308594 C 185.433594 167.175781 185.097656 162.714844 184.171875 158.339844 C 182.40625 149.589844 179.207031 147.320312 169.699219 147.65625 C 163.644531 147.824219 162.886719 148.582031 162.886719 154.132812 C 162.886719 163.640625 162.800781 173.066406 162.886719 182.570312 C 162.886719 186.777344 162.210938 190.730469 157.921875 193.003906 C 148.5 198.050781 142.863281 206.128906 138.066406 214.878906 C 130.914062 227.75 127.972656 241.714844 126.289062 256.019531 C 125.363281 264.011719 124.605469 272.003906 124.015625 279.914062 C 123.257812 289.25 122.753906 298.675781 122.082031 308.011719 C 125.867188 309.863281 128.726562 311.378906 131.671875 312.808594 C 149.675781 321.304688 169.28125 324.585938 188.796875 326.015625 C 211.851562 327.699219 235.070312 327.867188 258.207031 325.007812 C 263.929688 324.335938 269.734375 323.914062 275.371094 323.074219 C 284.625 321.640625 293.796875 319.960938 303.050781 318.277344 C 313.988281 316.257812 323.15625 310.453125 332.917969 305.910156 Z M 66.386719 155.058594 C 87.921875 158.507812 105.929688 152.199219 120.398438 137.644531 C 130.328125 127.550781 136.300781 116.023438 129.570312 101.886719 C 129.234375 101.132812 129.148438 100.207031 128.894531 99.363281 C 126.539062 91.289062 129.148438 83.632812 136.214844 78.835938 C 139.664062 76.566406 143.449219 74.460938 147.40625 73.03125 C 168.101562 65.542969 188.882812 58.054688 209.746094 50.988281 C 221.777344 46.949219 233.976562 43.585938 247.019531 43.417969 C 258.878906 43.25 267.628906 47.117188 273.015625 57.382812 C 274.023438 59.316406 275.792969 61.421875 277.726562 62.261719 C 294.132812 68.910156 310.789062 73.621094 328.960938 69.582031 C 339.730469 67.226562 347.890625 62.011719 353.023438 52.753906 C 353.699219 51.578125 354.117188 50.0625 353.949219 48.800781 C 349.996094 23.8125 325.933594 2.109375 296.234375 6.902344 C 290.515625 7.828125 284.792969 8.585938 279.15625 9.59375 C 260.984375 12.792969 242.726562 15.570312 224.722656 19.4375 C 204.617188 23.730469 184.675781 28.695312 164.820312 34.160156 C 149.929688 38.285156 135.289062 43.164062 120.902344 48.464844 C 101.132812 55.785156 83.886719 67.308594 68.488281 80.855469 C 57.214844 90.78125 50.0625 102.898438 51.410156 118.210938 C 52.335938 132.261719 57.382812 144.542969 66.386719 155.058594 Z M 25.246094 189.386719 C 26.589844 190.816406 27.601562 191.910156 28.695312 192.835938 C 29.535156 193.59375 30.460938 194.351562 31.472656 195.023438 C 39.296875 199.988281 53.933594 197.632812 56.542969 186.863281 C 57.46875 183.246094 56.457031 179.796875 53.261719 178.113281 C 49.894531 176.261719 46.53125 175.082031 42.15625 176.429688 C 34.921875 178.703125 29.285156 182.320312 25.246094 189.386719 Z M 42.238281 253.242188 C 49.222656 257.363281 56.625 257.28125 64.03125 254.839844 C 68.488281 253.410156 71.433594 248.53125 70.59375 245.503906 C 69.5 241.632812 63.695312 238.519531 58.8125 239.359375 C 57.636719 239.527344 56.542969 240.117188 55.363281 240.453125 C 48.886719 242.726562 44.847656 247.101562 42.238281 253.242188 Z M 327.195312 350.164062 C 318.195312 352.265625 310.285156 354.117188 302.460938 355.96875 C 303.050781 362.949219 303.050781 363.035156 309.359375 363.035156 C 312.726562 363.035156 316.089844 362.867188 319.457031 362.78125 C 322.570312 362.699219 325.429688 362.109375 327.785156 359.164062 C 327.617188 356.472656 327.449219 353.359375 327.195312 350.164062 Z M 162.464844 364.214844 C 162.128906 361.4375 161.960938 359.5 161.792969 357.902344 C 152.285156 355.800781 143.367188 353.78125 134.449219 351.761719 C 134.953125 359.417969 136.46875 361.183594 142.609375 363.035156 C 148.75 364.886719 155.0625 364.632812 162.464844 364.214844 Z M 62.347656 304.140625 C 65.964844 304.140625 68.910156 304.730469 71.351562 303.972656 C 74.632812 302.964844 77.996094 301.28125 80.519531 299.011719 C 81.699219 297.917969 81.78125 294.636719 81.023438 292.867188 C 79.929688 290.511719 77.070312 290.679688 74.632812 291.691406 C 69.078125 294.046875 65.207031 297.832031 62.347656 304.140625 Z M 62.347656 304.140625 " fill-opacity="1" fill-rule="nonzero"/></g><path fill="#ffffff" d="M 293.796875 249.625 C 299.011719 246.511719 300.945312 238.855469 309.109375 243.398438 C 309.109375 248.195312 309.109375 253.496094 309.109375 258.710938 C 300.441406 260.8125 300.441406 260.8125 296.992188 253.328125 C 293.375 253.664062 290.933594 255.261719 289.253906 258.375 C 282.605469 270.238281 271.332031 277.050781 258.710938 281.761719 C 238.6875 289.167969 218.414062 289.585938 198.222656 282.183594 C 188.628906 278.652344 180.21875 273.519531 174.242188 265.527344 C 160.78125 247.4375 167.09375 228.253906 183.667969 215.382812 C 193.257812 207.894531 204.445312 203.519531 216.5625 201.332031 C 235.660156 197.882812 254.085938 199.648438 271.25 208.738281 C 283.109375 215.046875 292.027344 223.796875 293.878906 237.171875 C 294.214844 240.789062 293.796875 244.492188 293.796875 249.625 Z M 283.617188 226.910156 C 282.773438 225.394531 282.269531 223.710938 281.089844 222.449219 C 269.0625 209.410156 253.074219 205.289062 235.070312 204.53125 C 236.164062 208.398438 237.511719 211.765625 233.558594 214.207031 C 230.695312 215.886719 223.375 215.636719 221.527344 213.449219 C 220.179688 211.933594 219.171875 209.914062 222.113281 208.566406 C 224.808594 212.523438 227.75 213.953125 230.191406 211.933594 C 233.894531 208.90625 229.6875 207.136719 228.84375 204.699219 C 218.917969 204.699219 210 207.222656 201.417969 210.925781 C 201.164062 211.175781 200.914062 211.429688 200.578125 211.597656 C 188.378906 215.550781 179.796875 223.292969 174.410156 234.058594 C 169.785156 243.316406 170.710938 252.90625 176.9375 260.984375 C 180.890625 266.199219 186.609375 270.65625 192.417969 274.105469 C 201.839844 279.746094 212.523438 281.679688 223.714844 282.101562 C 239.027344 282.605469 253.410156 280.164062 266.621094 272.675781 C 274.109375 268.386719 280.671875 263.171875 285.046875 254.503906 C 274.949219 255.347656 270.660156 247.015625 263.761719 243.902344 C 253.664062 255.175781 249.878906 256.523438 222.113281 258.878906 C 223.039062 260.984375 224.21875 263 224.808594 265.1875 C 225.734375 268.808594 223.460938 272.089844 219.171875 273.9375 C 215.300781 275.539062 211.429688 274.613281 208.570312 271.5 C 205.792969 268.386719 205.625 265.527344 208.234375 262.160156 C 209.914062 259.972656 211.683594 257.871094 213.28125 255.933594 C 210.671875 254 208.652344 252.652344 206.886719 251.054688 C 198.390625 243.484375 198.304688 234.902344 206.71875 227.160156 C 213.113281 221.355469 221.019531 218.242188 229.769531 218.160156 C 236.667969 218.074219 243.652344 219.335938 250.550781 220.011719 C 250.636719 220.261719 250.71875 220.515625 250.886719 220.683594 C 250.972656 220.765625 251.222656 220.765625 251.394531 220.851562 C 251.054688 220.597656 250.71875 220.347656 250.382812 220.09375 C 249.792969 218.496094 249.039062 216.898438 248.699219 215.214844 C 248.027344 212.1875 249.625 210.503906 253.328125 209.660156 C 253.160156 210.753906 253.074219 211.511719 252.992188 212.1875 C 252.316406 218.496094 254 219.84375 260.3125 217.824219 C 261.152344 217.570312 262.078125 217.570312 263.253906 217.402344 C 262.160156 222.449219 258.207031 221.523438 256.105469 222.113281 C 258.460938 225.3125 262.414062 228.421875 263.253906 232.210938 C 264.6875 238.6875 269.398438 242.222656 274.023438 246.007812 C 277.894531 249.121094 282.351562 250.464844 287.738281 248.195312 C 289 241.96875 289.503906 235.910156 285.128906 230.441406 C 284.878906 229.179688 284.203125 228.003906 283.617188 226.910156 Z M 235.40625 221.859375 C 225.816406 222.199219 216.644531 223.710938 209.578125 230.527344 C 203.101562 236.753906 203.773438 244.070312 211.597656 248.53125 C 215.890625 250.972656 221.019531 252.90625 225.902344 253.578125 C 237.511719 255.09375 248.28125 252.570312 256.691406 244.242188 C 261.066406 239.867188 260.816406 234.144531 256.609375 229.601562 C 250.972656 223.542969 243.570312 221.777344 235.40625 221.859375 Z M 217.488281 261.65625 C 215.132812 263 213.027344 264.265625 211.261719 265.273438 C 212.355469 269.226562 214.796875 270.824219 217.65625 269.3125 C 221.273438 267.460938 219.507812 264.683594 217.488281 261.65625 Z M 217.488281 261.65625 " fill-opacity="1" fill-rule="nonzero"/><path fill="#ffffff" d="M 281.765625 281.511719 C 280.167969 286.8125 275.875 290.175781 271.417969 292.617188 C 253.074219 302.878906 233.472656 307.171875 212.019531 303.636719 C 195.191406 300.863281 180.300781 294.128906 166.167969 285.464844 C 162.96875 283.53125 160.363281 280.667969 156.492188 277.386719 C 161.457031 276.632812 163.558594 278.902344 165.914062 280.417969 C 176.347656 286.894531 186.863281 293.289062 198.808594 296.90625 C 225.734375 305.066406 250.972656 302.207031 273.855469 285.71875 C 276.042969 284.117188 278.230469 282.6875 280.503906 281.175781 C 280.585938 281.175781 280.921875 281.34375 281.765625 281.511719 Z M 281.765625 281.511719 " fill-opacity="1" fill-rule="nonzero"/><path fill="#ffffff" d="M 314.070312 213.027344 C 304.5625 207.222656 296.824219 202.257812 288.832031 197.632812 C 277.054688 190.648438 274.527344 177.691406 276.800781 167.511719 C 276.96875 166.753906 277.894531 166.25 279.324219 164.566406 C 279.746094 167.511719 280.25 169.445312 280.167969 171.382812 C 279.746094 183.832031 285.464844 192.582031 296.992188 198.640625 C 302.207031 201.417969 306.835938 205.289062 311.546875 208.738281 C 312.390625 209.410156 312.726562 210.585938 314.070312 213.027344 Z M 314.070312 213.027344 " fill-opacity="1" fill-rule="nonzero"/><path fill="#ffffff" d="M 145.21875 214.710938 C 148.75 211.679688 150.769531 209.832031 152.875 208.0625 C 155.648438 205.792969 158.59375 203.855469 161.117188 201.417969 C 165.746094 196.957031 168.269531 191.65625 168.101562 185.261719 C 167.933594 178.195312 168.019531 171.046875 168.859375 163.976562 C 169.53125 173.484375 173.570312 182.738281 170.457031 192.582031 C 167.429688 202.175781 158.089844 211.679688 145.21875 214.710938 Z M 145.21875 214.710938 " fill-opacity="1" fill-rule="nonzero"/><path fill="#ffffff" d="M 332.917969 305.910156 C 333.507812 305.742188 334.011719 305.574219 334.601562 305.40625 C 334.261719 305.742188 333.84375 306.078125 333.507812 306.414062 Z M 332.917969 305.910156 " fill-opacity="1" fill-rule="nonzero"/><path fill="#ffffff" d="M 240.203125 262.75 C 247.355469 262.832031 251.222656 265.609375 250.804688 270.238281 C 250.46875 274.359375 245.25 278.820312 240.960938 278.734375 C 235.828125 278.652344 231.789062 274.359375 231.789062 268.976562 C 231.957031 264.09375 233.894531 262.664062 240.203125 262.75 Z M 236.921875 267.292969 C 235.828125 270.742188 237.175781 272.675781 240.289062 273.183594 C 243.90625 273.855469 245.585938 271.917969 245.925781 268.554688 C 242.980469 266.113281 239.949219 266.871094 236.921875 267.292969 Z M 236.921875 267.292969 " fill-opacity="1" fill-rule="nonzero"/><path fill="#ffffff" d="M 194.605469 263.421875 C 189.136719 263.339844 186.191406 260.308594 186.191406 254.589844 C 186.191406 249.121094 189.050781 246.089844 194.015625 246.34375 C 198.640625 246.597656 203.351562 251.8125 203.101562 256.441406 C 202.765625 260.5625 199.316406 263.421875 194.605469 263.421875 Z M 196.621094 258.878906 C 197.042969 257.785156 197.378906 257.28125 197.378906 256.777344 C 197.546875 254 196.875 251.390625 193.257812 251.476562 C 192.246094 251.476562 190.566406 252.90625 190.3125 253.832031 C 189.722656 256.691406 190.984375 258.796875 194.433594 259.214844 C 195.023438 259.300781 195.613281 259.046875 196.621094 258.878906 Z M 196.621094 258.878906 " fill-opacity="1" fill-rule="nonzero"/><path fill="#ffffff" d="M 273.015625 260.140625 C 273.183594 264.433594 269.902344 268.132812 265.695312 268.300781 C 261.320312 268.46875 256.273438 264.515625 256.1875 260.8125 C 256.105469 257.449219 260.480469 254.167969 265.105469 254 C 270.238281 253.914062 272.847656 255.933594 273.015625 260.140625 Z M 262.328125 261.992188 C 264.515625 263.253906 266.789062 264.09375 268.386719 260.984375 C 268.640625 260.476562 268.304688 259.046875 267.796875 258.796875 C 265.273438 257.617188 263.253906 258.207031 262.078125 260.730469 C 262.078125 260.984375 262.246094 261.234375 262.328125 261.992188 Z M 262.328125 261.992188 " fill-opacity="1" fill-rule="nonzero"/><path fill="#ffffff" d="M 283.699219 226.824219 C 284.289062 228.003906 284.960938 229.179688 285.550781 230.273438 C 285.128906 233.554688 283.53125 236.078125 280.167969 237.511719 C 276.378906 239.109375 273.773438 238.519531 270.828125 235.070312 C 268.386719 232.292969 268.21875 229.347656 271.078125 226.742188 C 272.339844 225.5625 274.699219 225.140625 276.632812 224.972656 C 279.15625 224.804688 280.503906 226.152344 280.082031 228.675781 C 277.808594 229.265625 274.527344 227.917969 273.605469 231.367188 C 278.820312 234.480469 278.820312 234.480469 279.996094 228.59375 C 281.261719 227.917969 282.523438 227.328125 283.699219 226.824219 Z M 283.699219 226.824219 " fill-opacity="1" fill-rule="nonzero"/><path fill="#ffffff" d="M 186.359375 240.875 C 182.488281 237.929688 177.523438 236.078125 179.125 230.273438 C 179.964844 227.246094 183.5 224.890625 186.527344 224.972656 C 189.554688 224.972656 193.257812 227.5 193.847656 230.359375 C 195.191406 235.996094 190.734375 238.183594 186.359375 240.875 Z M 186.273438 236.835938 C 187.117188 236.332031 187.957031 236.078125 188.546875 235.492188 C 190.398438 233.472656 190.398438 231.367188 188.042969 229.769531 C 187.367188 229.265625 185.683594 229.347656 184.929688 229.769531 C 182.742188 231.199219 183.328125 233.050781 184.507812 234.816406 C 185.011719 235.574219 185.601562 236.164062 186.273438 236.835938 Z M 186.273438 236.835938 " fill-opacity="1" fill-rule="nonzero"/><path fill="#ffffff" d="M 201.503906 211.007812 C 203.351562 211.09375 205.203125 210.925781 206.972656 211.429688 C 209.578125 212.1875 210.839844 214.121094 210.589844 216.730469 C 210.421875 219.335938 208.988281 221.1875 206.382812 221.777344 C 203.4375 222.367188 200.15625 222.871094 198.054688 220.011719 C 195.445312 216.394531 198.976562 214.289062 200.660156 211.765625 C 200.996094 211.429688 201.335938 211.261719 201.503906 211.007812 Z M 204.445312 219.671875 C 205.121094 218.410156 205.710938 217.484375 206.046875 216.476562 C 206.128906 216.308594 204.445312 215.300781 204.195312 215.46875 C 203.351562 216.054688 202.679688 216.980469 202.257812 217.90625 C 202.175781 218.074219 203.351562 218.832031 204.445312 219.671875 Z M 204.445312 219.671875 " fill-opacity="1" fill-rule="nonzero"/></svg>