<svg xmlns="http://www.w3.org/2000/svg" xmlns:xlink="http://www.w3.org/1999/xlink" width="500" zoomAndPan="magnify" viewBox="0 0 375 374.999991" height="500" preserveAspectRatio="xMidYMid meet" version="1.0"><defs><g/><clipPath id="d178ad0b61"><path d="M 0.878906 0.28125 L 349.359375 0.28125 L 349.359375 89 L 0.878906 89 Z M 0.878906 0.28125 " clip-rule="nonzero"/></clipPath><clipPath id="b2ecf6207d"><rect x="0" width="350" y="0" height="89"/></clipPath><clipPath id="cae39c3840"><path d="M 133 86 L 146 86 L 146 104.921875 L 133 104.921875 Z M 133 86 " clip-rule="nonzero"/></clipPath><clipPath id="4c1677e04b"><rect x="0" width="350" y="0" height="105"/></clipPath></defs><g transform="matrix(1, 0, 0, 1, 14, 125)"><g clip-path="url(#4c1677e04b)"><g clip-path="url(#d178ad0b61)"><g><g clip-path="url(#b2ecf6207d)"><g fill="#ffffff" fill-opacity="1"><g transform="translate(4.754244, 61.54426)"><g><path d="M 37.546875 -8.453125 C 37.460938 -8.285156 37.421875 -8.039062 37.421875 -7.71875 C 37.421875 -7.425781 37.492188 -7.195312 37.640625 -7.03125 C 37.785156 -6.875 37.976562 -6.796875 38.21875 -6.796875 C 38.707031 -6.796875 39.125 -7.007812 39.46875 -7.4375 C 39.820312 -7.863281 40.0625 -8.078125 40.1875 -8.078125 C 40.382812 -8.078125 40.546875 -7.941406 40.671875 -7.671875 C 40.796875 -7.410156 40.859375 -7.097656 40.859375 -6.734375 C 40.898438 -5.554688 40.507812 -4.40625 39.6875 -3.28125 C 38.875 -2.15625 37.679688 -1.234375 36.109375 -0.515625 C 34.535156 0.191406 32.644531 0.546875 30.4375 0.546875 C 27.75 0.546875 25.609375 -0.0703125 24.015625 -1.3125 C 22.421875 -2.5625 21.601562 -4.226562 21.5625 -6.3125 C 21.5625 -7.820312 21.925781 -9.515625 22.65625 -11.390625 L 26.03125 -20.21875 C 26.238281 -20.75 26.34375 -21.175781 26.34375 -21.5 C 26.34375 -22.03125 26.164062 -22.445312 25.8125 -22.75 C 25.46875 -23.0625 25.050781 -23.21875 24.5625 -23.21875 C 23.78125 -23.21875 22.992188 -22.859375 22.203125 -22.140625 C 21.410156 -21.421875 20.769531 -20.269531 20.28125 -18.6875 L 20.28125 -18.796875 L 16.421875 -6.375 C 16.296875 -5.882812 16.234375 -5.453125 16.234375 -5.078125 C 16.234375 -4.546875 16.332031 -4.128906 16.53125 -3.828125 C 16.738281 -3.523438 17.023438 -3.226562 17.390625 -2.9375 C 17.679688 -2.65625 17.882812 -2.421875 18 -2.234375 C 18.125 -2.046875 18.144531 -1.8125 18.0625 -1.53125 C 17.863281 -1 17.457031 -0.609375 16.84375 -0.359375 C 16.226562 -0.117188 15.289062 0 14.03125 0 L 0.0625 0 C -1 0 -1.773438 -0.171875 -2.265625 -0.515625 C -2.753906 -0.867188 -2.914062 -1.332031 -2.75 -1.90625 C -2.59375 -2.394531 -2.164062 -2.820312 -1.46875 -3.1875 C -0.851562 -3.507812 -0.34375 -3.894531 0.0625 -4.34375 C 0.46875 -4.789062 0.816406 -5.507812 1.109375 -6.5 L 10.40625 -37.0625 C 10.53125 -37.425781 10.59375 -37.726562 10.59375 -37.96875 C 10.59375 -38.425781 10.476562 -38.796875 10.25 -39.078125 C 10.03125 -39.359375 9.738281 -39.644531 9.375 -39.9375 C 8.96875 -40.257812 8.671875 -40.539062 8.484375 -40.78125 C 8.296875 -41.03125 8.265625 -41.359375 8.390625 -41.765625 C 8.640625 -42.710938 9.925781 -43.53125 12.25 -44.21875 C 14.570312 -44.914062 17 -45.265625 19.53125 -45.265625 C 21.90625 -45.265625 23.648438 -44.8125 24.765625 -43.90625 C 25.890625 -43.007812 26.453125 -41.785156 26.453125 -40.234375 C 26.453125 -39.335938 26.3125 -38.460938 26.03125 -37.609375 L 22.71875 -26.828125 C 24.3125 -28.910156 25.992188 -30.359375 27.765625 -31.171875 C 29.546875 -31.992188 31.476562 -32.40625 33.5625 -32.40625 C 36.050781 -32.40625 38.0625 -31.648438 39.59375 -30.140625 C 41.125 -28.628906 41.890625 -26.664062 41.890625 -24.25 C 41.890625 -22.988281 41.6875 -21.742188 41.28125 -20.515625 Z M 37.546875 -8.453125 "/></g></g></g><g fill="#ffffff" fill-opacity="1"><g transform="translate(48.240678, 61.54426)"><g><path d="M 20.765625 -32.703125 C 25.953125 -32.703125 29.707031 -31.875 32.03125 -30.21875 C 34.363281 -28.570312 35.53125 -26.460938 35.53125 -23.890625 C 35.53125 -23.109375 35.445312 -22.394531 35.28125 -21.75 C 34.664062 -19.050781 32.957031 -17.117188 30.15625 -15.953125 C 27.363281 -14.785156 24.070312 -14.203125 20.28125 -14.203125 C 18.351562 -14.203125 16.554688 -14.328125 14.890625 -14.578125 C 14.847656 -12.453125 15.414062 -10.957031 16.59375 -10.09375 C 17.78125 -9.238281 19.4375 -8.8125 21.5625 -8.8125 C 22.539062 -8.8125 23.476562 -8.925781 24.375 -9.15625 C 25.269531 -9.382812 26.414062 -9.722656 27.8125 -10.171875 C 28.945312 -10.578125 29.722656 -10.78125 30.140625 -10.78125 C 30.585938 -10.78125 30.8125 -10.515625 30.8125 -9.984375 C 30.851562 -8.554688 30.320312 -7.054688 29.21875 -5.484375 C 28.113281 -3.910156 26.476562 -2.570312 24.3125 -1.46875 C 22.144531 -0.363281 19.53125 0.1875 16.46875 0.1875 C 11.9375 0.1875 8.222656 -0.953125 5.328125 -3.234375 C 2.429688 -5.523438 0.984375 -8.859375 0.984375 -13.234375 C 0.984375 -14.453125 1.144531 -15.878906 1.46875 -17.515625 C 2.488281 -22.535156 4.722656 -26.320312 8.171875 -28.875 C 11.628906 -31.425781 15.828125 -32.703125 20.765625 -32.703125 Z M 15.3125 -18.25 C 15.476562 -18.207031 15.703125 -18.1875 15.984375 -18.1875 C 17.703125 -18.1875 19.007812 -18.984375 19.90625 -20.578125 C 20.800781 -22.171875 21.226562 -23.945312 21.1875 -25.90625 C 21.144531 -27.050781 20.820312 -27.625 20.21875 -27.625 C 19.757812 -27.625 19.222656 -27.265625 18.609375 -26.546875 C 18.003906 -25.835938 17.40625 -24.765625 16.8125 -23.328125 C 16.21875 -21.898438 15.71875 -20.207031 15.3125 -18.25 Z M 15.3125 -18.25 "/></g></g></g><g fill="#ffffff" fill-opacity="1"><g transform="translate(82.539873, 61.54426)"><g><path d="M 21.859375 -32.40625 C 26.554688 -32.40625 30.3125 -31.535156 33.125 -29.796875 C 35.945312 -28.054688 37.359375 -25.410156 37.359375 -21.859375 C 37.359375 -20.515625 37.113281 -18.984375 36.625 -17.265625 L 34.109375 -8.8125 C 34.078125 -8.65625 34.0625 -8.453125 34.0625 -8.203125 C 34.0625 -7.554688 34.320312 -7.234375 34.84375 -7.234375 C 35.34375 -7.234375 35.765625 -7.445312 36.109375 -7.875 C 36.453125 -8.300781 36.6875 -8.515625 36.8125 -8.515625 C 37.019531 -8.515625 37.191406 -8.367188 37.328125 -8.078125 C 37.472656 -7.796875 37.546875 -7.472656 37.546875 -7.109375 C 37.585938 -6.003906 37.164062 -4.878906 36.28125 -3.734375 C 35.40625 -2.585938 34.234375 -1.644531 32.765625 -0.90625 C 31.296875 -0.175781 29.6875 0.1875 27.9375 0.1875 C 25.8125 0.1875 23.992188 -0.195312 22.484375 -0.96875 C 20.972656 -1.75 19.929688 -2.894531 19.359375 -4.40625 C 18.128906 -2.9375 16.675781 -1.800781 15 -1 C 13.332031 -0.207031 11.535156 0.1875 9.609375 0.1875 C 7.453125 0.1875 5.632812 -0.226562 4.15625 -1.0625 C 2.6875 -1.90625 1.59375 -2.988281 0.875 -4.3125 C 0.164062 -5.644531 -0.1875 -7.046875 -0.1875 -8.515625 C -0.1875 -9.171875 -0.125 -9.800781 0 -10.40625 C 0.65625 -13.226562 2.070312 -15.351562 4.25 -16.78125 C 6.4375 -18.207031 9.039062 -18.921875 12.0625 -18.921875 C 15.457031 -18.921875 18.785156 -18.390625 22.046875 -17.328125 L 23.578125 -21.375 C 24.109375 -23.09375 24.375 -24.421875 24.375 -25.359375 C 24.332031 -26.335938 24.003906 -27.070312 23.390625 -27.5625 C 22.785156 -28.050781 21.847656 -28.296875 20.578125 -28.296875 C 20.828125 -27.640625 20.953125 -26.96875 20.953125 -26.28125 C 20.953125 -24.769531 20.378906 -23.460938 19.234375 -22.359375 C 18.085938 -21.253906 16.453125 -20.703125 14.328125 -20.703125 C 12.328125 -20.703125 10.765625 -21.140625 9.640625 -22.015625 C 8.523438 -22.898438 7.96875 -23.992188 7.96875 -25.296875 C 7.96875 -27.335938 9.109375 -29.03125 11.390625 -30.375 C 13.679688 -31.726562 17.171875 -32.40625 21.859375 -32.40625 Z M 18.4375 -13.84375 C 17.289062 -13.84375 16.359375 -13.398438 15.640625 -12.515625 C 14.929688 -11.640625 14.578125 -10.691406 14.578125 -9.671875 C 14.578125 -9.023438 14.726562 -8.492188 15.03125 -8.078125 C 15.34375 -7.671875 15.785156 -7.46875 16.359375 -7.46875 C 16.890625 -7.46875 17.46875 -7.679688 18.09375 -8.109375 C 18.726562 -8.546875 19.191406 -9.191406 19.484375 -10.046875 L 20.765625 -13.65625 C 20.066406 -13.78125 19.289062 -13.84375 18.4375 -13.84375 Z M 18.4375 -13.84375 "/></g></g></g><g fill="#ffffff" fill-opacity="1"><g transform="translate(122.596411, 61.54426)"><g><path d="M 30.078125 -32.40625 C 32.359375 -32.40625 34.179688 -31.707031 35.546875 -30.3125 C 36.921875 -28.925781 37.609375 -27.210938 37.609375 -25.171875 C 37.609375 -24.398438 37.523438 -23.6875 37.359375 -23.03125 C 36.953125 -21.351562 36.175781 -20.066406 35.03125 -19.171875 C 33.882812 -18.273438 32.519531 -17.828125 30.9375 -17.828125 C 29.382812 -17.828125 28.207031 -18.191406 27.40625 -18.921875 C 26.613281 -19.660156 25.910156 -20.640625 25.296875 -21.859375 C 24.972656 -22.554688 24.664062 -23.066406 24.375 -23.390625 C 24.09375 -23.722656 23.765625 -23.890625 23.390625 -23.890625 C 22.984375 -23.890625 22.625 -23.722656 22.3125 -23.390625 C 22.007812 -23.066406 21.738281 -22.5 21.5 -21.6875 L 16.78125 -6.375 C 16.695312 -6.164062 16.65625 -5.859375 16.65625 -5.453125 C 16.65625 -4.921875 16.804688 -4.476562 17.109375 -4.125 C 17.421875 -3.78125 17.84375 -3.445312 18.375 -3.125 C 18.863281 -2.800781 19.1875 -2.535156 19.34375 -2.328125 C 19.507812 -2.117188 19.570312 -1.851562 19.53125 -1.53125 C 19.457031 -1 19.164062 -0.609375 18.65625 -0.359375 C 18.144531 -0.117188 17.273438 0 16.046875 0 L 0.375 0 C -0.6875 0 -1.453125 -0.171875 -1.921875 -0.515625 C -2.398438 -0.867188 -2.578125 -1.332031 -2.453125 -1.90625 C -2.285156 -2.394531 -1.851562 -2.820312 -1.15625 -3.1875 C -0.550781 -3.507812 -0.046875 -3.894531 0.359375 -4.34375 C 0.773438 -4.789062 1.125 -5.507812 1.40625 -6.5 L 6.859375 -24.1875 C 6.941406 -24.394531 6.984375 -24.679688 6.984375 -25.046875 C 6.984375 -25.492188 6.890625 -25.835938 6.703125 -26.078125 C 6.523438 -26.328125 6.226562 -26.640625 5.8125 -27.015625 C 5.40625 -27.335938 5.117188 -27.617188 4.953125 -27.859375 C 4.796875 -28.109375 4.78125 -28.4375 4.90625 -28.84375 C 5.144531 -29.78125 6.425781 -30.609375 8.75 -31.328125 C 11.082031 -32.046875 13.515625 -32.40625 16.046875 -32.40625 C 17.722656 -32.40625 19.109375 -32.023438 20.203125 -31.265625 C 21.304688 -30.515625 22.023438 -29.441406 22.359375 -28.046875 C 24.316406 -30.953125 26.890625 -32.40625 30.078125 -32.40625 Z M 30.078125 -32.40625 "/></g></g></g><g fill="#ffffff" fill-opacity="1"><g transform="translate(158.059329, 61.54426)"><g><path d="M 27.375 -31.609375 C 28.15625 -31.609375 28.757812 -31.441406 29.1875 -31.109375 C 29.613281 -30.785156 29.828125 -30.335938 29.828125 -29.765625 C 29.828125 -29.597656 29.785156 -29.3125 29.703125 -28.90625 C 29.171875 -27.113281 27.945312 -26.21875 26.03125 -26.21875 L 22.484375 -26.21875 L 17.890625 -11.09375 C 17.679688 -10.476562 17.578125 -9.84375 17.578125 -9.1875 C 17.578125 -8.445312 17.78125 -7.9375 18.1875 -7.65625 C 18.59375 -7.375 19.164062 -7.234375 19.90625 -7.234375 C 20.5625 -7.234375 21.378906 -7.3125 22.359375 -7.46875 C 22.847656 -7.59375 23.273438 -7.65625 23.640625 -7.65625 C 23.929688 -7.65625 24.144531 -7.5625 24.28125 -7.375 C 24.425781 -7.195312 24.5 -6.960938 24.5 -6.671875 C 24.539062 -5.859375 23.9375 -4.867188 22.6875 -3.703125 C 21.445312 -2.535156 19.765625 -1.535156 17.640625 -0.703125 C 15.515625 0.128906 13.164062 0.546875 10.59375 0.546875 C 7.820312 0.546875 5.597656 -0.0820312 3.921875 -1.34375 C 2.242188 -2.613281 1.40625 -4.347656 1.40625 -6.546875 C 1.40625 -7.566406 1.570312 -8.550781 1.90625 -9.5 L 5.8125 -21.625 C 6.019531 -22.3125 6.125 -22.863281 6.125 -23.28125 C 6.125 -24.09375 5.929688 -24.785156 5.546875 -25.359375 C 5.160156 -25.929688 4.617188 -26.523438 3.921875 -27.140625 C 3.304688 -27.703125 2.875 -28.175781 2.625 -28.5625 C 2.382812 -28.957031 2.328125 -29.421875 2.453125 -29.953125 C 2.609375 -30.484375 2.953125 -30.890625 3.484375 -31.171875 C 4.015625 -31.460938 4.851562 -31.609375 6 -31.609375 L 9.4375 -31.609375 L 13.296875 -35.46875 C 14.640625 -36.8125 15.875 -37.75 17 -38.28125 C 18.125 -38.8125 19.582031 -39.078125 21.375 -39.078125 C 23.945312 -39.078125 25.234375 -38.097656 25.234375 -36.140625 C 25.234375 -35.523438 25.148438 -34.953125 24.984375 -34.421875 L 24.125 -31.609375 Z M 27.375 -31.609375 "/></g></g></g><g fill="#ffffff" fill-opacity="1"><g transform="translate(184.396223, 61.54426)"><g><path d="M 19.53125 -45.265625 C 21.90625 -45.265625 23.648438 -44.8125 24.765625 -43.90625 C 25.890625 -43.007812 26.453125 -41.785156 26.453125 -40.234375 C 26.453125 -39.335938 26.3125 -38.460938 26.03125 -37.609375 L 16.421875 -6.375 C 16.296875 -5.882812 16.234375 -5.453125 16.234375 -5.078125 C 16.234375 -4.546875 16.332031 -4.128906 16.53125 -3.828125 C 16.738281 -3.523438 17.023438 -3.226562 17.390625 -2.9375 C 17.679688 -2.65625 17.882812 -2.421875 18 -2.234375 C 18.125 -2.046875 18.144531 -1.8125 18.0625 -1.53125 C 17.863281 -1 17.457031 -0.609375 16.84375 -0.359375 C 16.226562 -0.117188 15.289062 0 14.03125 0 L 0.0625 0 C -1 0 -1.773438 -0.171875 -2.265625 -0.515625 C -2.753906 -0.867188 -2.914062 -1.332031 -2.75 -1.90625 C -2.59375 -2.394531 -2.164062 -2.820312 -1.46875 -3.1875 C -0.851562 -3.507812 -0.34375 -3.894531 0.0625 -4.34375 C 0.46875 -4.789062 0.816406 -5.507812 1.109375 -6.5 L 10.40625 -37.0625 C 10.53125 -37.425781 10.59375 -37.726562 10.59375 -37.96875 C 10.59375 -38.425781 10.476562 -38.796875 10.25 -39.078125 C 10.03125 -39.359375 9.738281 -39.644531 9.375 -39.9375 C 8.96875 -40.257812 8.671875 -40.539062 8.484375 -40.78125 C 8.296875 -41.03125 8.265625 -41.359375 8.390625 -41.765625 C 8.640625 -42.710938 9.925781 -43.53125 12.25 -44.21875 C 14.570312 -44.914062 17 -45.265625 19.53125 -45.265625 Z M 19.53125 -45.265625 "/></g></g></g><g fill="#ffffff" fill-opacity="1"><g transform="translate(206.813212, 61.54426)"><g><path d="M 16.109375 -32.40625 C 18.484375 -32.40625 20.21875 -31.953125 21.3125 -31.046875 C 22.414062 -30.148438 22.96875 -28.925781 22.96875 -27.375 C 22.96875 -26.4375 22.828125 -25.539062 22.546875 -24.6875 L 16.90625 -6.375 C 16.78125 -5.882812 16.71875 -5.453125 16.71875 -5.078125 C 16.71875 -4.546875 16.820312 -4.128906 17.03125 -3.828125 C 17.238281 -3.523438 17.523438 -3.226562 17.890625 -2.9375 C 18.171875 -2.65625 18.375 -2.421875 18.5 -2.234375 C 18.625 -2.046875 18.644531 -1.8125 18.5625 -1.53125 C 18.351562 -1 17.941406 -0.609375 17.328125 -0.359375 C 16.722656 -0.117188 15.785156 0 14.515625 0 L 0.5625 0 C -0.5 0 -1.273438 -0.171875 -1.765625 -0.515625 C -2.253906 -0.867188 -2.421875 -1.332031 -2.265625 -1.90625 C -2.097656 -2.394531 -1.664062 -2.820312 -0.96875 -3.1875 C -0.363281 -3.507812 0.140625 -3.894531 0.546875 -4.34375 C 0.960938 -4.789062 1.3125 -5.507812 1.59375 -6.5 L 6.921875 -24.1875 C 7.046875 -24.5625 7.109375 -24.867188 7.109375 -25.109375 C 7.109375 -25.554688 7.003906 -25.910156 6.796875 -26.171875 C 6.597656 -26.441406 6.296875 -26.722656 5.890625 -27.015625 C 5.472656 -27.335938 5.179688 -27.617188 5.015625 -27.859375 C 4.859375 -28.109375 4.84375 -28.4375 4.96875 -28.84375 C 5.207031 -29.78125 6.488281 -30.609375 8.8125 -31.328125 C 11.144531 -32.046875 13.578125 -32.40625 16.109375 -32.40625 Z M 20.21875 -45.9375 C 21.8125 -45.9375 23.140625 -45.414062 24.203125 -44.375 C 25.265625 -43.332031 25.796875 -42.054688 25.796875 -40.546875 C 25.796875 -39.484375 25.519531 -38.441406 24.96875 -37.421875 C 24.414062 -36.398438 23.640625 -35.570312 22.640625 -34.9375 C 21.640625 -34.3125 20.523438 -34 19.296875 -34 C 17.742188 -34 16.445312 -34.519531 15.40625 -35.5625 C 14.363281 -36.601562 13.820312 -37.894531 13.78125 -39.4375 C 13.78125 -40.457031 14.046875 -41.46875 14.578125 -42.46875 C 15.109375 -43.476562 15.863281 -44.304688 16.84375 -44.953125 C 17.820312 -45.609375 18.945312 -45.9375 20.21875 -45.9375 Z M 20.21875 -45.9375 "/></g></g></g><g fill="#ffffff" fill-opacity="1"><g transform="translate(229.2302, 61.54426)"><g><path d="M 37.90625 -8.453125 C 37.832031 -8.285156 37.796875 -8.039062 37.796875 -7.71875 C 37.796875 -7.425781 37.863281 -7.195312 38 -7.03125 C 38.144531 -6.875 38.34375 -6.796875 38.59375 -6.796875 C 39.082031 -6.796875 39.5 -7.007812 39.84375 -7.4375 C 40.1875 -7.863281 40.421875 -8.078125 40.546875 -8.078125 C 40.753906 -8.078125 40.914062 -7.941406 41.03125 -7.671875 C 41.15625 -7.410156 41.21875 -7.097656 41.21875 -6.734375 C 41.257812 -5.554688 40.867188 -4.40625 40.046875 -3.28125 C 39.234375 -2.15625 38.039062 -1.234375 36.46875 -0.515625 C 34.894531 0.191406 33.007812 0.546875 30.8125 0.546875 C 28.113281 0.546875 25.96875 -0.0703125 24.375 -1.3125 C 22.78125 -2.5625 21.960938 -4.226562 21.921875 -6.3125 C 21.921875 -7.820312 22.289062 -9.515625 23.03125 -11.390625 L 26.40625 -20.21875 C 26.601562 -20.75 26.703125 -21.175781 26.703125 -21.5 C 26.703125 -22.03125 26.523438 -22.445312 26.171875 -22.75 C 25.828125 -23.0625 25.410156 -23.21875 24.921875 -23.21875 C 24.023438 -23.21875 23.164062 -22.796875 22.34375 -21.953125 C 21.53125 -21.117188 20.941406 -20.085938 20.578125 -18.859375 L 16.78125 -6.375 C 16.613281 -5.925781 16.53125 -5.492188 16.53125 -5.078125 C 16.53125 -4.585938 16.632812 -4.191406 16.84375 -3.890625 C 17.050781 -3.585938 17.335938 -3.269531 17.703125 -2.9375 C 17.984375 -2.695312 18.1875 -2.472656 18.3125 -2.265625 C 18.4375 -2.054688 18.457031 -1.8125 18.375 -1.53125 C 18.207031 -1 17.816406 -0.609375 17.203125 -0.359375 C 16.597656 -0.117188 15.640625 0 14.328125 0 L 0.375 0 C -0.6875 0 -1.453125 -0.171875 -1.921875 -0.515625 C -2.398438 -0.867188 -2.578125 -1.332031 -2.453125 -1.90625 C -2.285156 -2.394531 -1.851562 -2.820312 -1.15625 -3.1875 C -0.550781 -3.507812 -0.046875 -3.894531 0.359375 -4.34375 C 0.773438 -4.789062 1.125 -5.507812 1.40625 -6.5 L 6.859375 -24.1875 C 6.941406 -24.394531 6.984375 -24.679688 6.984375 -25.046875 C 6.984375 -25.492188 6.890625 -25.835938 6.703125 -26.078125 C 6.523438 -26.328125 6.226562 -26.640625 5.8125 -27.015625 C 5.40625 -27.335938 5.117188 -27.617188 4.953125 -27.859375 C 4.796875 -28.109375 4.78125 -28.4375 4.90625 -28.84375 C 5.144531 -29.78125 6.425781 -30.609375 8.75 -31.328125 C 11.082031 -32.046875 13.515625 -32.40625 16.046875 -32.40625 C 18.085938 -32.40625 19.695312 -31.84375 20.875 -30.71875 C 22.0625 -29.59375 22.597656 -28.03125 22.484375 -26.03125 C 24.148438 -28.4375 25.921875 -30.097656 27.796875 -31.015625 C 29.679688 -31.941406 31.726562 -32.40625 33.9375 -32.40625 C 36.425781 -32.40625 38.4375 -31.648438 39.96875 -30.140625 C 41.5 -28.628906 42.265625 -26.664062 42.265625 -24.25 C 42.265625 -22.988281 42.0625 -21.742188 41.65625 -20.515625 Z M 37.90625 -8.453125 "/></g></g></g><g fill="#ffffff" fill-opacity="1"><g transform="translate(273.084156, 61.54426)"><g><path d="M 20.765625 -32.703125 C 25.953125 -32.703125 29.707031 -31.875 32.03125 -30.21875 C 34.363281 -28.570312 35.53125 -26.460938 35.53125 -23.890625 C 35.53125 -23.109375 35.445312 -22.394531 35.28125 -21.75 C 34.664062 -19.050781 32.957031 -17.117188 30.15625 -15.953125 C 27.363281 -14.785156 24.070312 -14.203125 20.28125 -14.203125 C 18.351562 -14.203125 16.554688 -14.328125 14.890625 -14.578125 C 14.847656 -12.453125 15.414062 -10.957031 16.59375 -10.09375 C 17.78125 -9.238281 19.4375 -8.8125 21.5625 -8.8125 C 22.539062 -8.8125 23.476562 -8.925781 24.375 -9.15625 C 25.269531 -9.382812 26.414062 -9.722656 27.8125 -10.171875 C 28.945312 -10.578125 29.722656 -10.78125 30.140625 -10.78125 C 30.585938 -10.78125 30.8125 -10.515625 30.8125 -9.984375 C 30.851562 -8.554688 30.320312 -7.054688 29.21875 -5.484375 C 28.113281 -3.910156 26.476562 -2.570312 24.3125 -1.46875 C 22.144531 -0.363281 19.53125 0.1875 16.46875 0.1875 C 11.9375 0.1875 8.222656 -0.953125 5.328125 -3.234375 C 2.429688 -5.523438 0.984375 -8.859375 0.984375 -13.234375 C 0.984375 -14.453125 1.144531 -15.878906 1.46875 -17.515625 C 2.488281 -22.535156 4.722656 -26.320312 8.171875 -28.875 C 11.628906 -31.425781 15.828125 -32.703125 20.765625 -32.703125 Z M 15.3125 -18.25 C 15.476562 -18.207031 15.703125 -18.1875 15.984375 -18.1875 C 17.703125 -18.1875 19.007812 -18.984375 19.90625 -20.578125 C 20.800781 -22.171875 21.226562 -23.945312 21.1875 -25.90625 C 21.144531 -27.050781 20.820312 -27.625 20.21875 -27.625 C 19.757812 -27.625 19.222656 -27.265625 18.609375 -26.546875 C 18.003906 -25.835938 17.40625 -24.765625 16.8125 -23.328125 C 16.21875 -21.898438 15.71875 -20.207031 15.3125 -18.25 Z M 15.3125 -18.25 "/></g></g></g><g fill="#ffffff" fill-opacity="1"><g transform="translate(307.383351, 61.54426)"><g><path d="M 20.15625 -32.953125 C 23.539062 -32.953125 26.46875 -32.644531 28.9375 -32.03125 C 31.40625 -31.414062 33.300781 -30.554688 34.625 -29.453125 C 35.957031 -28.359375 36.625 -27.113281 36.625 -25.71875 C 36.625 -24.289062 36.0625 -23.128906 34.9375 -22.234375 C 33.820312 -21.335938 32.257812 -20.890625 30.25 -20.890625 C 28.207031 -20.890625 26.484375 -21.398438 25.078125 -22.421875 C 23.671875 -23.441406 22.96875 -24.726562 22.96875 -26.28125 C 22.96875 -26.8125 23.050781 -27.320312 23.21875 -27.8125 C 22.476562 -28.007812 21.820312 -28.109375 21.25 -28.109375 C 20.226562 -28.109375 19.378906 -27.863281 18.703125 -27.375 C 18.035156 -26.882812 17.722656 -26.191406 17.765625 -25.296875 C 17.765625 -24.234375 18.296875 -23.332031 19.359375 -22.59375 C 20.421875 -21.863281 22.132812 -20.945312 24.5 -19.84375 C 26.539062 -18.945312 28.222656 -18.117188 29.546875 -17.359375 C 30.878906 -16.609375 32.003906 -15.660156 32.921875 -14.515625 C 33.835938 -13.367188 34.296875 -12.019531 34.296875 -10.46875 C 34.296875 -10.144531 34.21875 -9.535156 34.0625 -8.640625 C 33.40625 -5.898438 31.582031 -3.734375 28.59375 -2.140625 C 25.613281 -0.546875 21.695312 0.25 16.84375 0.25 C 11.375 0.25 7.035156 -0.484375 3.828125 -1.953125 C 0.617188 -3.429688 -0.984375 -5.457031 -0.984375 -8.03125 C -0.984375 -9.78125 -0.453125 -11.101562 0.609375 -12 C 1.671875 -12.90625 3.082031 -13.359375 4.84375 -13.359375 C 6.882812 -13.359375 8.628906 -12.722656 10.078125 -11.453125 C 11.523438 -10.191406 12.25 -8.578125 12.25 -6.609375 C 12.25 -6.078125 12.1875 -5.53125 12.0625 -4.96875 C 13.039062 -4.71875 13.984375 -4.59375 14.890625 -4.59375 C 15.941406 -4.59375 16.816406 -4.878906 17.515625 -5.453125 C 18.210938 -6.023438 18.5625 -6.820312 18.5625 -7.84375 C 18.519531 -8.78125 18.046875 -9.582031 17.140625 -10.25 C 16.242188 -10.925781 14.816406 -11.734375 12.859375 -12.671875 C 11.023438 -13.535156 9.515625 -14.34375 8.328125 -15.09375 C 7.140625 -15.851562 6.128906 -16.800781 5.296875 -17.9375 C 4.460938 -19.082031 4.046875 -20.429688 4.046875 -21.984375 C 4.046875 -25.335938 5.441406 -28.003906 8.234375 -29.984375 C 11.035156 -31.960938 15.007812 -32.953125 20.15625 -32.953125 Z M 20.15625 -32.953125 "/></g></g></g></g></g></g><g clip-path="url(#cae39c3840)"><g fill="#ffffff" fill-opacity="1"><g transform="translate(131.68719, 97.94838)"><g><path d="M 3.6875 6.375 L 1.90625 6.375 L 1.90625 -11.21875 L 3.6875 -11.21875 L 3.6875 -9.296875 C 3.789062 -9.429688 3.90625 -9.5625 4.03125 -9.6875 C 5.082031 -10.875 6.378906 -11.46875 7.921875 -11.46875 C 9.472656 -11.46875 10.78125 -10.875 11.84375 -9.6875 C 12.863281 -8.53125 13.375 -7.171875 13.375 -5.609375 C 13.375 -4.046875 12.863281 -2.6875 11.84375 -1.53125 C 10.78125 -0.34375 9.472656 0.25 7.921875 0.25 C 6.378906 0.25 5.082031 -0.34375 4.03125 -1.53125 C 3.90625 -1.644531 3.789062 -1.769531 3.6875 -1.90625 Z M 11.59375 -5.609375 C 11.59375 -6.691406 11.21875 -7.640625 10.46875 -8.453125 C 9.707031 -9.273438 8.765625 -9.6875 7.640625 -9.6875 C 6.523438 -9.6875 5.59375 -9.273438 4.84375 -8.453125 C 4.070312 -7.640625 3.6875 -6.691406 3.6875 -5.609375 C 3.6875 -4.515625 4.070312 -3.5625 4.84375 -2.75 C 5.59375 -1.9375 6.523438 -1.53125 7.640625 -1.53125 C 8.765625 -1.53125 9.707031 -1.9375 10.46875 -2.75 C 11.21875 -3.5625 11.59375 -4.515625 11.59375 -5.609375 Z M 11.59375 -5.609375 "/></g></g></g></g><g fill="#ffffff" fill-opacity="1"><g transform="translate(147.227024, 97.94838)"><g><path d="M 11.078125 -5.65625 C 11.078125 -6.78125 10.679688 -7.738281 9.890625 -8.53125 C 9.085938 -9.332031 8.128906 -9.734375 7.015625 -9.734375 C 5.890625 -9.734375 4.925781 -9.332031 4.125 -8.53125 C 3.332031 -7.738281 2.9375 -6.78125 2.9375 -5.65625 C 2.9375 -4.550781 3.332031 -3.597656 4.125 -2.796875 C 4.925781 -2.003906 5.890625 -1.609375 7.015625 -1.609375 C 8.128906 -1.609375 9.085938 -2.003906 9.890625 -2.796875 C 10.679688 -3.597656 11.078125 -4.550781 11.078125 -5.65625 Z M 12.875 -5.65625 C 12.875 -4.03125 12.300781 -2.65625 11.15625 -1.53125 C 9.988281 -0.394531 8.609375 0.171875 7.015625 0.171875 C 5.410156 0.171875 4.03125 -0.394531 2.875 -1.53125 C 1.71875 -2.65625 1.140625 -4.03125 1.140625 -5.65625 C 1.140625 -7.269531 1.71875 -8.65625 2.875 -9.8125 C 4.019531 -10.945312 5.398438 -11.515625 7.015625 -11.515625 C 8.617188 -11.515625 10 -10.945312 11.15625 -9.8125 C 12.300781 -8.65625 12.875 -7.269531 12.875 -5.65625 Z M 12.875 -5.65625 "/></g></g></g><g fill="#ffffff" fill-opacity="1"><g transform="translate(162.25739, 97.94838)"><g><path d="M 12.875 1.421875 L 9.21875 -7.625 L 5.625 1.421875 L 0.25 -11.21875 L 2.25 -11.21875 L 5.609375 -2.578125 L 9.21875 -11.796875 L 12.84375 -2.578125 L 16.203125 -11.21875 L 18.203125 -11.21875 Z M 12.875 1.421875 "/></g></g></g><g fill="#ffffff" fill-opacity="1"><g transform="translate(181.720187, 97.94838)"><g><path d="M 12.875 -5.859375 L 12.875 -4.921875 L 3 -4.921875 C 3.175781 -3.953125 3.644531 -3.160156 4.40625 -2.546875 C 5.1875 -1.921875 6.054688 -1.609375 7.015625 -1.609375 C 7.660156 -1.609375 8.28125 -1.757812 8.875 -2.0625 C 9.445312 -2.351562 9.929688 -2.757812 10.328125 -3.28125 L 12.359375 -3.28125 C 11.878906 -2.21875 11.164062 -1.378906 10.21875 -0.765625 C 9.25 -0.140625 8.269531 0.171875 7.28125 0.171875 C 6.28125 0.171875 5.429688 0.0195312 4.734375 -0.28125 C 4.023438 -0.582031 3.40625 -1 2.875 -1.53125 C 1.71875 -2.65625 1.140625 -4.03125 1.140625 -5.65625 C 1.140625 -7.269531 1.71875 -8.65625 2.875 -9.8125 C 4.019531 -10.945312 5.398438 -11.515625 7.015625 -11.515625 C 8.578125 -11.515625 9.941406 -10.960938 11.109375 -9.859375 C 12.285156 -8.742188 12.875 -7.410156 12.875 -5.859375 Z M 10.984375 -6.453125 C 10.773438 -7.398438 10.300781 -8.1875 9.5625 -8.8125 C 8.8125 -9.425781 7.960938 -9.734375 7.015625 -9.734375 C 5.546875 -9.734375 4.394531 -9.078125 3.5625 -7.765625 C 3.3125 -7.359375 3.132812 -6.921875 3.03125 -6.453125 Z M 10.984375 -6.453125 "/></g></g></g><g fill="#ffffff" fill-opacity="1"><g transform="translate(196.623171, 97.94838)"><g><path d="M 7.671875 -8.890625 C 7.265625 -9.265625 6.820312 -9.453125 6.34375 -9.453125 C 5.882812 -9.453125 5.492188 -9.328125 5.171875 -9.078125 C 4.828125 -8.804688 4.546875 -8.484375 4.328125 -8.109375 C 3.898438 -7.359375 3.6875 -6.523438 3.6875 -5.609375 L 3.6875 0 L 1.90625 0 L 1.90625 -11.21875 L 3.6875 -11.21875 L 3.6875 -8.890625 L 3.765625 -9.359375 C 4.359375 -10.742188 5.285156 -11.4375 6.546875 -11.4375 C 6.941406 -11.4375 7.316406 -11.363281 7.671875 -11.21875 Z M 7.671875 -8.890625 "/></g></g></g><g fill="#ffffff" fill-opacity="1"><g transform="translate(205.565265, 97.94838)"><g><path d="M 12.875 -5.859375 L 12.875 -4.921875 L 3 -4.921875 C 3.175781 -3.953125 3.644531 -3.160156 4.40625 -2.546875 C 5.1875 -1.921875 6.054688 -1.609375 7.015625 -1.609375 C 7.660156 -1.609375 8.28125 -1.757812 8.875 -2.0625 C 9.445312 -2.351562 9.929688 -2.757812 10.328125 -3.28125 L 12.359375 -3.28125 C 11.878906 -2.21875 11.164062 -1.378906 10.21875 -0.765625 C 9.25 -0.140625 8.269531 0.171875 7.28125 0.171875 C 6.28125 0.171875 5.429688 0.0195312 4.734375 -0.28125 C 4.023438 -0.582031 3.40625 -1 2.875 -1.53125 C 1.71875 -2.65625 1.140625 -4.03125 1.140625 -5.65625 C 1.140625 -7.269531 1.71875 -8.65625 2.875 -9.8125 C 4.019531 -10.945312 5.398438 -11.515625 7.015625 -11.515625 C 8.578125 -11.515625 9.941406 -10.960938 11.109375 -9.859375 C 12.285156 -8.742188 12.875 -7.410156 12.875 -5.859375 Z M 10.984375 -6.453125 C 10.773438 -7.398438 10.300781 -8.1875 9.5625 -8.8125 C 8.8125 -9.425781 7.960938 -9.734375 7.015625 -9.734375 C 5.546875 -9.734375 4.394531 -9.078125 3.5625 -7.765625 C 3.3125 -7.359375 3.132812 -6.921875 3.03125 -6.453125 Z M 10.984375 -6.453125 "/></g></g></g><g fill="#ffffff" fill-opacity="1"><g transform="translate(220.468249, 97.94838)"><g><path d="M 10.828125 -5.609375 C 10.828125 -6.691406 10.453125 -7.640625 9.703125 -8.453125 C 8.941406 -9.273438 8 -9.6875 6.875 -9.6875 C 5.757812 -9.6875 4.828125 -9.273438 4.078125 -8.453125 C 3.316406 -7.640625 2.9375 -6.691406 2.9375 -5.609375 C 2.9375 -4.515625 3.316406 -3.5625 4.078125 -2.75 C 4.828125 -1.9375 5.757812 -1.53125 6.875 -1.53125 C 8 -1.53125 8.941406 -1.9375 9.703125 -2.75 C 10.453125 -3.5625 10.828125 -4.515625 10.828125 -5.609375 Z M 12.609375 0 L 10.828125 0 L 10.828125 -1.90625 C 10.722656 -1.769531 10.625 -1.644531 10.53125 -1.53125 C 9.457031 -0.34375 8.144531 0.25 6.59375 0.25 C 5.050781 0.25 3.753906 -0.34375 2.703125 -1.53125 C 1.660156 -2.6875 1.140625 -4.046875 1.140625 -5.609375 C 1.140625 -7.171875 1.660156 -8.53125 2.703125 -9.6875 C 3.753906 -10.875 5.050781 -11.46875 6.59375 -11.46875 C 8.144531 -11.46875 9.457031 -10.875 10.53125 -9.6875 C 10.625 -9.5625 10.722656 -9.429688 10.828125 -9.296875 L 10.828125 -19.109375 L 12.609375 -19.109375 Z M 12.609375 0 "/></g></g></g><g fill="#ffffff" fill-opacity="1"><g transform="translate(236.008083, 97.94838)"><g/></g></g><g fill="#ffffff" fill-opacity="1"><g transform="translate(243.905752, 97.94838)"><g><path d="M 3.6875 0 L 1.90625 0 L 1.90625 -19.109375 L 3.6875 -19.109375 Z M 3.6875 0 "/></g></g></g><g fill="#ffffff" fill-opacity="1"><g transform="translate(250.529722, 97.94838)"><g><path d="M 10.828125 -5.609375 C 10.828125 -6.691406 10.453125 -7.640625 9.703125 -8.453125 C 8.941406 -9.273438 8 -9.6875 6.875 -9.6875 C 5.757812 -9.6875 4.828125 -9.273438 4.078125 -8.453125 C 3.316406 -7.640625 2.9375 -6.691406 2.9375 -5.609375 C 2.9375 -4.515625 3.316406 -3.5625 4.078125 -2.75 C 4.828125 -1.9375 5.757812 -1.53125 6.875 -1.53125 C 8 -1.53125 8.941406 -1.9375 9.703125 -2.75 C 10.453125 -3.5625 10.828125 -4.515625 10.828125 -5.609375 Z M 12.609375 0 L 10.828125 0 L 10.828125 -1.90625 C 10.722656 -1.769531 10.625 -1.644531 10.53125 -1.53125 C 9.457031 -0.34375 8.144531 0.25 6.59375 0.25 C 5.050781 0.25 3.753906 -0.34375 2.703125 -1.53125 C 1.660156 -2.6875 1.140625 -4.046875 1.140625 -5.609375 C 1.140625 -7.171875 1.660156 -8.53125 2.703125 -9.6875 C 3.753906 -10.875 5.050781 -11.46875 6.59375 -11.46875 C 8.144531 -11.46875 9.457031 -10.875 10.53125 -9.6875 C 10.625 -9.5625 10.722656 -9.429688 10.828125 -9.296875 L 10.828125 -11.21875 L 12.609375 -11.21875 Z M 12.609375 0 "/></g></g></g><g fill="#ffffff" fill-opacity="1"><g transform="translate(266.069556, 97.94838)"><g><path d="M 9.65625 -1.90625 C 8.820312 -0.476562 7.570312 0.234375 5.90625 0.234375 C 4.65625 0.234375 3.671875 -0.179688 2.953125 -1.015625 C 2.253906 -1.847656 1.90625 -2.910156 1.90625 -4.203125 L 1.90625 -11.21875 L 3.6875 -11.21875 L 3.6875 -4.203125 C 3.6875 -3.472656 3.859375 -2.851562 4.203125 -2.34375 C 4.523438 -1.8125 5.066406 -1.546875 5.828125 -1.546875 C 7.222656 -1.546875 8.210938 -1.988281 8.796875 -2.875 C 9.367188 -3.738281 9.65625 -4.957031 9.65625 -6.53125 L 9.65625 -11.21875 L 11.4375 -11.21875 L 11.4375 0 L 9.65625 0 Z M 9.65625 -1.90625 "/></g></g></g><g fill="#ffffff" fill-opacity="1"><g transform="translate(280.05547, 97.94838)"><g><path d="M 7.671875 -8.890625 C 7.265625 -9.265625 6.820312 -9.453125 6.34375 -9.453125 C 5.882812 -9.453125 5.492188 -9.328125 5.171875 -9.078125 C 4.828125 -8.804688 4.546875 -8.484375 4.328125 -8.109375 C 3.898438 -7.359375 3.6875 -6.523438 3.6875 -5.609375 L 3.6875 0 L 1.90625 0 L 1.90625 -11.21875 L 3.6875 -11.21875 L 3.6875 -8.890625 L 3.765625 -9.359375 C 4.359375 -10.742188 5.285156 -11.4375 6.546875 -11.4375 C 6.941406 -11.4375 7.316406 -11.363281 7.671875 -11.21875 Z M 7.671875 -8.890625 "/></g></g></g><g fill="#ffffff" fill-opacity="1"><g transform="translate(288.997564, 97.94838)"><g><path d="M 3.71875 -15.09375 C 3.9375 -14.863281 4.046875 -14.597656 4.046875 -14.296875 C 4.046875 -13.972656 3.9375 -13.703125 3.71875 -13.484375 C 3.5 -13.265625 3.238281 -13.15625 2.9375 -13.15625 C 2.613281 -13.15625 2.335938 -13.265625 2.109375 -13.484375 C 1.890625 -13.703125 1.78125 -13.972656 1.78125 -14.296875 C 1.78125 -14.597656 1.890625 -14.863281 2.109375 -15.09375 C 2.335938 -15.3125 2.613281 -15.421875 2.9375 -15.421875 C 3.238281 -15.421875 3.5 -15.3125 3.71875 -15.09375 Z M 3.828125 0 L 2.03125 0 L 2.03125 -11.21875 L 3.828125 -11.21875 Z M 3.828125 0 "/></g></g></g><g fill="#ffffff" fill-opacity="1"><g transform="translate(295.850808, 97.94838)"><g><path d="M 12.875 -5.859375 L 12.875 -4.921875 L 3 -4.921875 C 3.175781 -3.953125 3.644531 -3.160156 4.40625 -2.546875 C 5.1875 -1.921875 6.054688 -1.609375 7.015625 -1.609375 C 7.660156 -1.609375 8.28125 -1.757812 8.875 -2.0625 C 9.445312 -2.351562 9.929688 -2.757812 10.328125 -3.28125 L 12.359375 -3.28125 C 11.878906 -2.21875 11.164062 -1.378906 10.21875 -0.765625 C 9.25 -0.140625 8.269531 0.171875 7.28125 0.171875 C 6.28125 0.171875 5.429688 0.0195312 4.734375 -0.28125 C 4.023438 -0.582031 3.40625 -1 2.875 -1.53125 C 1.71875 -2.65625 1.140625 -4.03125 1.140625 -5.65625 C 1.140625 -7.269531 1.71875 -8.65625 2.875 -9.8125 C 4.019531 -10.945312 5.398438 -11.515625 7.015625 -11.515625 C 8.578125 -11.515625 9.941406 -10.960938 11.109375 -9.859375 C 12.285156 -8.742188 12.875 -7.410156 12.875 -5.859375 Z M 10.984375 -6.453125 C 10.773438 -7.398438 10.300781 -8.1875 9.5625 -8.8125 C 8.8125 -9.425781 7.960938 -9.734375 7.015625 -9.734375 C 5.546875 -9.734375 4.394531 -9.078125 3.5625 -7.765625 C 3.3125 -7.359375 3.132812 -6.921875 3.03125 -6.453125 Z M 10.984375 -6.453125 "/></g></g></g><g fill="#ffffff" fill-opacity="1"><g transform="translate(310.753793, 97.94838)"><g/></g></g><g fill="#ffffff" fill-opacity="1"><g transform="translate(318.651462, 97.94838)"><g><path d="M 10.828125 -5.609375 C 10.828125 -6.691406 10.453125 -7.640625 9.703125 -8.453125 C 8.941406 -9.273438 8 -9.6875 6.875 -9.6875 C 5.757812 -9.6875 4.828125 -9.273438 4.078125 -8.453125 C 3.316406 -7.640625 2.9375 -6.691406 2.9375 -5.609375 C 2.9375 -4.515625 3.316406 -3.5625 4.078125 -2.75 C 4.828125 -1.9375 5.757812 -1.53125 6.875 -1.53125 C 8 -1.53125 8.941406 -1.9375 9.703125 -2.75 C 10.453125 -3.5625 10.828125 -4.515625 10.828125 -5.609375 Z M 12.609375 0 L 10.828125 0 L 10.828125 -1.90625 C 10.722656 -1.769531 10.625 -1.644531 10.53125 -1.53125 C 9.457031 -0.34375 8.144531 0.25 6.59375 0.25 C 5.050781 0.25 3.753906 -0.34375 2.703125 -1.53125 C 1.660156 -2.6875 1.140625 -4.046875 1.140625 -5.609375 C 1.140625 -7.171875 1.660156 -8.53125 2.703125 -9.6875 C 3.753906 -10.875 5.050781 -11.46875 6.59375 -11.46875 C 8.144531 -11.46875 9.457031 -10.875 10.53125 -9.6875 C 10.625 -9.5625 10.722656 -9.429688 10.828125 -9.296875 L 10.828125 -11.21875 L 12.609375 -11.21875 Z M 12.609375 0 "/></g></g></g><g fill="#ffffff" fill-opacity="1"><g transform="translate(334.191296, 97.94838)"><g><path d="M 3.71875 -15.09375 C 3.9375 -14.863281 4.046875 -14.597656 4.046875 -14.296875 C 4.046875 -13.972656 3.9375 -13.703125 3.71875 -13.484375 C 3.5 -13.265625 3.238281 -13.15625 2.9375 -13.15625 C 2.613281 -13.15625 2.335938 -13.265625 2.109375 -13.484375 C 1.890625 -13.703125 1.78125 -13.972656 1.78125 -14.296875 C 1.78125 -14.597656 1.890625 -14.863281 2.109375 -15.09375 C 2.335938 -15.3125 2.613281 -15.421875 2.9375 -15.421875 C 3.238281 -15.421875 3.5 -15.3125 3.71875 -15.09375 Z M 3.828125 0 L 2.03125 0 L 2.03125 -11.21875 L 3.828125 -11.21875 Z M 3.828125 0 "/></g></g></g></g></g></svg>